<svg xmlns="http://www.w3.org/2000/svg" width="17" height="17" viewBox="0 0 17 17" fill="none">
<path d="M2.49142 2.5H14.501C14.6878 2.5 14.8457 2.56444 14.9747 2.69333C15.1037 2.82222 15.1682 2.98 15.1682 3.16667V13.8333C15.1682 14.02 15.1037 14.1778 14.9747 14.3067C14.8457 14.4356 14.6878 14.5 14.501 14.5H2.49142C2.3046 14.5 2.1467 14.4356 2.01771 14.3067C1.88871 14.1778 1.82422 14.02 1.82422 13.8333V3.16667C1.82422 2.98 1.88871 2.82222 2.01771 2.69333C2.1467 2.56444 2.3046 2.5 2.49142 2.5ZM13.8338 13.1667V5.32667L8.54959 10.06L3.15862 5.31333V13.1667H13.8338ZM13.5002 3.83333H3.50556L8.53625 8.27333L13.5002 3.83333Z" fill="#0066CC"/>
</svg>