<svg xmlns="http://www.w3.org/2000/svg" width="17" height="16" viewBox="0 0 17 16" fill="none">
<path d="M7.81567 1.3335H9.17676C9.85286 1.3335 10.3421 1.33794 10.6446 1.34683L11.2451 1.3735C11.8678 1.40016 12.406 1.50238 12.8597 1.68016C13.3134 1.85794 13.7093 2.11572 14.0473 2.4535C14.3854 2.79127 14.6434 3.18683 14.8213 3.64016C14.9992 4.0935 15.1015 4.63127 15.1282 5.2535L15.1549 5.8535C15.1638 6.16461 15.1682 6.6535 15.1682 7.32016V8.68016C15.1682 9.35572 15.1638 9.84461 15.1549 10.1468L15.1282 10.7468C15.1015 11.3691 14.9992 11.9068 14.8213 12.3602C14.6434 12.8135 14.3854 13.2091 14.0473 13.5468C13.7093 13.8846 13.3134 14.1424 12.8597 14.3202C12.406 14.4979 11.8678 14.6002 11.2451 14.6268L10.6446 14.6535C10.3332 14.6624 9.84396 14.6668 9.17676 14.6668H7.81567C7.13958 14.6668 6.6503 14.6624 6.34783 14.6535L5.74735 14.6268C5.12463 14.6002 4.58643 14.4979 4.13273 14.3202C3.67903 14.1424 3.28316 13.8846 2.94511 13.5468C2.60707 13.2091 2.34908 12.8135 2.17116 12.3602C1.99324 11.9068 1.89094 11.3691 1.86425 10.7468L1.83756 10.1468C1.82867 9.83572 1.82422 9.34683 1.82422 8.68016V7.32016C1.82422 6.64461 1.82867 6.15572 1.83756 5.8535L1.86425 5.2535C1.89094 4.63127 1.99324 4.0935 2.17116 3.64016C2.34908 3.18683 2.60707 2.79127 2.94511 2.4535C3.28316 2.11572 3.67903 1.85794 4.13273 1.68016C4.58643 1.50238 5.12463 1.40016 5.74735 1.3735L6.34783 1.34683C6.65919 1.33794 7.14847 1.3335 7.81567 1.3335ZM8.49622 4.66683C7.89129 4.66683 7.33307 4.81572 6.82155 5.1135C6.31003 5.41127 5.90526 5.81572 5.60724 6.32683C5.30923 6.83794 5.16022 7.39572 5.16022 8.00016C5.16022 8.60461 5.30923 9.16238 5.60724 9.6735C5.90526 10.1846 6.31003 10.5891 6.82155 10.8868C7.33307 11.1846 7.89129 11.3335 8.49622 11.3335C9.10115 11.3335 9.65937 11.1846 10.1709 10.8868C10.6824 10.5891 11.0872 10.1846 11.3852 9.6735C11.6832 9.16238 11.8322 8.60461 11.8322 8.00016C11.8322 7.39572 11.6832 6.83794 11.3852 6.32683C11.0872 5.81572 10.6824 5.41127 10.1709 5.1135C9.65937 4.81572 9.10115 4.66683 8.49622 4.66683ZM8.49622 6.00016C8.86095 6.00016 9.19678 6.08905 9.50369 6.26683C9.8106 6.44461 10.053 6.68683 10.2309 6.9935C10.4089 7.30016 10.4978 7.63572 10.4978 8.00016C10.4978 8.36461 10.4089 8.70016 10.2309 9.00683C10.053 9.3135 9.8106 9.55572 9.50369 9.7335C9.19678 9.91127 8.86095 10.0002 8.49622 10.0002C8.13148 10.0002 7.79566 9.91127 7.48875 9.7335C7.18183 9.55572 6.93942 9.3135 6.7615 9.00683C6.58358 8.70016 6.49462 8.36461 6.49462 8.00016C6.49462 7.63572 6.58358 7.30016 6.7615 6.9935C6.93942 6.68683 7.18183 6.44461 7.48875 6.26683C7.79566 6.08905 8.13148 6.00016 8.49622 6.00016ZM11.9923 3.66683C11.7699 3.66683 11.5765 3.74905 11.4119 3.9135C11.2473 4.07794 11.165 4.2735 11.165 4.50016C11.165 4.72683 11.2473 4.92238 11.4119 5.08683C11.5765 5.25127 11.7722 5.3335 11.999 5.3335C12.2259 5.3335 12.4216 5.25127 12.5862 5.08683C12.7507 4.92238 12.833 4.72683 12.833 4.50016C12.833 4.2735 12.7507 4.07794 12.5862 3.9135C12.4216 3.74905 12.2236 3.66683 11.9923 3.66683Z" fill="white"/>
</svg>