<svg xmlns="http://www.w3.org/2000/svg" width="17" height="16" viewBox="0 0 17 16" fill="none">
<path d="M4.81326 3.33312C4.80437 3.60867 4.7243 3.85756 4.57307 4.07979C4.42184 4.30201 4.22168 4.46423 3.97259 4.56645C3.7235 4.66867 3.46552 4.69312 3.19864 4.63979C2.93176 4.58645 2.70269 4.46201 2.51142 4.26645C2.32016 4.0709 2.20229 3.83979 2.15781 3.57312C2.11333 3.30645 2.14446 3.04867 2.25122 2.79979C2.35797 2.5509 2.52699 2.35312 2.75829 2.20645C2.98958 2.05979 3.24312 1.9909 3.5189 1.99979C3.87474 2.00867 4.17942 2.14201 4.43296 2.39979C4.6865 2.65756 4.81326 2.96867 4.81326 3.33312ZM4.8533 13.9998V5.65312H2.1845V13.9998H4.8533ZM9.04331 6.77312L9.07 5.65312H6.41454V13.9998H9.04331V9.62645C9.04331 9.15534 9.15006 8.75534 9.36357 8.42645C9.56818 8.12423 9.83061 7.91534 10.1509 7.79979C10.4711 7.68423 10.7914 7.67534 11.1116 7.77312C11.4319 7.8709 11.6899 8.06645 11.8856 8.35979C12.108 8.69756 12.2192 9.11979 12.2192 9.62645V13.9998H14.8613V8.71979C14.8613 7.93756 14.6923 7.27534 14.3542 6.73312C14.0607 6.26201 13.6514 5.90645 13.1266 5.66645C12.6462 5.46201 12.1258 5.37312 11.5653 5.39979C11.0227 5.42645 10.52 5.56201 10.0575 5.80645C9.59486 6.0509 9.25682 6.37312 9.04331 6.77312Z" fill="white"/>
</svg>