<svg xmlns="http://www.w3.org/2000/svg" width="13" height="13" viewBox="0 0 13 13" fill="none">
<path d="M5.56193 5.03333L4.7346 5.62C5.04596 6.17111 5.42627 6.67111 5.87551 7.12C6.32476 7.56889 6.82516 7.94889 7.37672 8.26L7.96385 7.43333C8.06171 7.29111 8.19292 7.20222 8.3575 7.16667C8.52207 7.13111 8.67998 7.15333 8.83121 7.23333C9.78308 7.75778 10.8017 8.06 11.887 8.14C12.056 8.15778 12.2006 8.22889 12.3207 8.35333C12.4408 8.47778 12.5008 8.62889 12.5008 8.80667V11.78C12.5008 11.9489 12.443 12.0978 12.3273 12.2267C12.2117 12.3556 12.0694 12.4289 11.9003 12.4467C11.5445 12.4822 11.1887 12.5 10.8328 12.5C9.42724 12.5 8.08395 12.2289 6.80292 11.6867C5.56638 11.1622 4.47217 10.4244 3.5203 9.47333C2.56843 8.52222 1.83006 7.42889 1.30519 6.19333C0.762539 4.91333 0.491211 3.57111 0.491211 2.16667C0.491211 1.81111 0.509003 1.45556 0.544587 1.1C0.562379 0.931111 0.635771 0.788889 0.764763 0.673333C0.893755 0.557778 1.04276 0.5 1.21179 0.5H4.1875C4.36542 0.5 4.51665 0.56 4.6412 0.68C4.76574 0.8 4.83691 0.944445 4.8547 1.11333C4.93476 2.19778 5.23723 3.21556 5.76209 4.16667C5.84216 4.31778 5.8644 4.47556 5.82881 4.64C5.79323 4.80444 5.70427 4.93556 5.56193 5.03333ZM3.05326 5.18L4.32094 4.27333C3.9651 3.5 3.72046 2.68667 3.58702 1.83333H1.82561V2.16667C1.82561 3.38444 2.06136 4.55333 2.53284 5.67333C2.98654 6.74889 3.62928 7.70222 4.46105 8.53333C5.29283 9.36444 6.24692 10.0067 7.32334 10.46C8.44424 10.9311 9.61406 11.1667 10.8328 11.1667H11.1664V9.40667C10.3124 9.27333 9.49841 9.02889 8.72446 8.67333L7.81707 9.94C7.45233 9.79778 7.09649 9.62889 6.74955 9.43333L6.70952 9.42C6.06011 9.04667 5.46852 8.59333 4.93476 8.06C4.401 7.52667 3.94731 6.93556 3.57368 6.28667L3.56033 6.24667C3.36462 5.9 3.1956 5.54444 3.05326 5.18Z" fill="#0066CC"/>
</svg>