<svg xmlns="http://www.w3.org/2000/svg" width="17" height="16" viewBox="0 0 17 16" fill="none">
<path d="M9.6704 14.6668V9.00016H11.3384L12.0056 6.3335H9.6704V5.00016C9.6704 4.69794 9.68374 4.48016 9.71043 4.34683C9.76381 4.1335 9.87946 3.96905 10.0574 3.8535C10.2709 3.72905 10.5867 3.66683 11.0048 3.66683H12.0056V1.42683C11.8544 1.40905 11.6142 1.39127 11.285 1.3735C10.8758 1.34683 10.4799 1.3335 10.0974 1.3335C9.48358 1.3335 8.94315 1.45572 8.47611 1.70016C8.00907 1.94461 7.65101 2.2935 7.40192 2.74683C7.13504 3.23572 7.0016 3.80905 7.0016 4.46683V6.3335H5V9.00016H7.0016V14.6668H9.6704Z" fill="white"/>
</svg>