<svg xmlns="http://www.w3.org/2000/svg" width="18" height="17" viewBox="0 0 18 17" fill="none">
<path d="M5.54379 10.5534L8.83976 13.8601L12.1357 10.5534C12.7407 9.95786 13.1499 9.25564 13.3634 8.44675C13.568 7.65564 13.568 6.86453 13.3634 6.07342C13.1499 5.26453 12.7429 4.56008 12.1424 3.96008C11.5419 3.36008 10.8369 2.95342 10.0274 2.74008C9.23563 2.53564 8.44389 2.53564 7.65214 2.74008C6.84261 2.95342 6.1376 3.36008 5.53712 3.96008C4.93664 4.56008 4.52965 5.26453 4.31615 6.07342C4.11154 6.86453 4.11154 7.65564 4.31615 8.44675C4.52965 9.25564 4.93887 9.95786 5.54379 10.5534ZM13.0832 11.5001L8.83976 15.7401L4.59637 11.5001C3.82242 10.7356 3.302 9.82897 3.03512 8.78008C2.76824 7.76675 2.76824 6.75342 3.03512 5.74008C3.302 4.6912 3.82019 3.78231 4.5897 3.01342C5.3592 2.24453 6.26882 1.72231 7.31854 1.44675C8.33269 1.18897 9.34683 1.18897 10.361 1.44675C11.4107 1.72231 12.3203 2.24453 13.0898 3.01342C13.8593 3.78231 14.3775 4.6912 14.6444 5.74008C14.9113 6.75342 14.9113 7.76675 14.6444 8.78008C14.3775 9.82897 13.8571 10.7356 13.0832 11.5001ZM8.83976 8.59342C9.07995 8.59342 9.30235 8.53342 9.50696 8.41342C9.71157 8.29342 9.87392 8.1312 9.99402 7.92675C10.1141 7.72231 10.1742 7.50008 10.1742 7.26008C10.1742 7.02008 10.1141 6.79786 9.99402 6.59342C9.87392 6.38897 9.71157 6.22675 9.50696 6.10675C9.30235 5.98675 9.07995 5.92675 8.83976 5.92675C8.59957 5.92675 8.37717 5.98675 8.17256 6.10675C7.96795 6.22675 7.8056 6.38897 7.68551 6.59342C7.56541 6.79786 7.50536 7.02008 7.50536 7.26008C7.50536 7.50008 7.56541 7.72231 7.68551 7.92675C7.8056 8.1312 7.96795 8.29342 8.17256 8.41342C8.37717 8.53342 8.59957 8.59342 8.83976 8.59342ZM8.83976 9.92675C8.35938 9.92675 7.91458 9.80675 7.50536 9.56675C7.09615 9.32675 6.77144 9.00231 6.53125 8.59342C6.29106 8.18453 6.17096 7.73786 6.17096 7.25342C6.17096 6.76897 6.29106 6.32453 6.53125 5.92008C6.77144 5.51564 7.09615 5.19342 7.50536 4.95342C7.91458 4.71342 8.35938 4.59342 8.83976 4.59342C9.32015 4.59342 9.76495 4.71342 10.1742 4.95342C10.5834 5.19342 10.9081 5.51564 11.1483 5.92008C11.3885 6.32453 11.5086 6.76897 11.5086 7.25342C11.5086 7.73786 11.3885 8.18453 11.1483 8.59342C10.9081 9.00231 10.5834 9.32675 10.1742 9.56675C9.76495 9.80675 9.32015 9.92675 8.83976 9.92675Z" fill="#0066CC"/>
</svg>