<svg xmlns="http://www.w3.org/2000/svg" width="35" height="33" viewBox="0 0 35 33" fill="none">
<path d="M17.3948 30.1334C15.582 30.1334 13.8492 29.7868 12.1963 29.0934C10.6146 28.4179 9.20611 27.4623 7.97093 26.2268C6.73574 24.9912 5.78047 23.5823 5.10512 22.0001C4.41199 20.3468 4.06543 18.6134 4.06543 16.8001C4.06543 14.9868 4.41199 13.2534 5.10512 11.6001C5.78047 10.0179 6.73574 8.60898 7.97093 7.37342C9.20611 6.13787 10.6146 5.18231 12.1963 4.50676C13.8492 3.81342 15.582 3.46675 17.3948 3.46675C19.2076 3.46675 20.9404 3.81342 22.5932 4.50676C24.175 5.18231 25.5834 6.13787 26.8186 7.37342C28.0538 8.60898 29.0091 10.0179 29.6844 11.6001C30.3775 13.2534 30.7241 14.9868 30.7241 16.8001C30.7241 18.6134 30.3775 20.3468 29.6844 22.0001C29.0091 23.5823 28.0538 24.9912 26.8186 26.2268C25.5834 27.4623 24.175 28.4179 22.5932 29.0934C20.9404 29.7868 19.2076 30.1334 17.3948 30.1334ZM14.3557 27.0134C13.0227 24.2045 12.2674 21.2445 12.0897 18.1334H6.81127C6.989 19.5201 7.41998 20.8179 8.10422 22.0268C8.78846 23.2356 9.66819 24.2712 10.7434 25.1334C11.8187 25.9956 13.0227 26.6223 14.3557 27.0134ZM14.7822 18.1334C14.9777 21.3334 15.8486 24.3379 17.3948 27.1468C18.941 24.3379 19.8118 21.3334 20.0073 18.1334H14.7822ZM27.9783 18.1334H22.6998C22.5221 21.2445 21.7757 24.2045 20.4605 27.0134C21.7757 26.6223 22.9709 25.9956 24.0461 25.1334C25.1213 24.2712 26.0011 23.2356 26.6853 22.0268C27.3696 20.8179 27.8005 19.5201 27.9783 18.1334ZM6.81127 15.4668H12.0897C12.2674 12.3556 13.0227 9.39565 14.3557 6.58676C13.0227 6.97787 11.8187 7.60453 10.7434 8.46675C9.66819 9.32898 8.78846 10.3645 8.10422 11.5734C7.41998 12.7823 6.989 14.0801 6.81127 15.4668ZM14.7822 15.4668H20.0073C19.8118 12.2668 18.941 9.26231 17.3948 6.45342C15.8486 9.26231 14.9777 12.2668 14.7822 15.4668ZM20.4605 6.58676C21.7757 9.39565 22.5221 12.3556 22.6998 15.4668H27.9783C27.8005 14.0801 27.3696 12.7823 26.6853 11.5734C26.0011 10.3645 25.1213 9.32898 24.0461 8.46675C22.9709 7.60453 21.7757 6.97787 20.4605 6.58676Z" fill="white"/>
</svg>