<svg xmlns="http://www.w3.org/2000/svg" width="34" height="33" viewBox="0 0 34 33" fill="none">
<path d="M26.5225 3.46675V6.13342H23.8558V10.1334C24.5847 10.1334 25.2558 10.3112 25.8691 10.6668C26.4825 11.0223 26.9669 11.5068 27.3225 12.1201C27.678 12.7334 27.8558 13.4045 27.8558 14.1334V28.8001C27.8558 29.1734 27.7269 29.489 27.4691 29.7468C27.2113 30.0045 26.8958 30.1334 26.5225 30.1334H7.85579C7.48246 30.1334 7.16691 30.0045 6.90913 29.7468C6.65135 29.489 6.52246 29.1734 6.52246 28.8001V14.1334C6.52246 13.4045 6.70024 12.7334 7.05579 12.1201C7.41135 11.5068 7.89579 11.0223 8.50913 10.6668C9.12246 10.3112 9.79357 10.1334 10.5225 10.1334V6.13342H7.85579V3.46675H26.5225ZM23.8558 12.8001H10.5225C10.1491 12.8001 9.83357 12.929 9.57579 13.1868C9.31802 13.4445 9.18913 13.7601 9.18913 14.1334V27.4668H25.1891V14.1334C25.1891 13.7601 25.0602 13.4445 24.8025 13.1868C24.5447 12.929 24.2291 12.8001 23.8558 12.8001ZM18.5225 15.4668V18.1334H21.1891V20.8001H18.5225V23.4668H15.8558V20.8001H13.1891V18.1334H15.8558V15.4668H18.5225ZM21.1891 6.13342H13.1891V10.1334H21.1891V6.13342Z" fill="white"/>
</svg>