<svg xmlns="http://www.w3.org/2000/svg" width="23" height="21" viewBox="0 0 23 21" fill="none">
<path d="M11.6566 19.25C10.4478 19.25 9.29235 19.0225 8.19023 18.5675C7.13552 18.1242 6.19636 17.4971 5.37274 16.6862C4.54912 15.8754 3.91214 14.9508 3.46182 13.9125C2.99964 12.8275 2.76855 11.69 2.76855 10.5C2.76855 9.31 2.99964 8.1725 3.46182 7.0875C3.91214 6.04917 4.54912 5.12458 5.37274 4.31375C6.19636 3.50292 7.13552 2.87583 8.19023 2.4325C9.29235 1.9775 10.4478 1.75 11.6566 1.75C12.8653 1.75 14.0208 1.9775 15.1229 2.4325C16.1776 2.87583 17.1167 3.50292 17.9404 4.31375C18.764 5.12458 19.401 6.04917 19.8513 7.0875C20.3135 8.1725 20.5446 9.31 20.5446 10.5C20.5446 11.69 20.3135 12.8275 19.8513 13.9125C19.401 14.9508 18.764 15.8754 17.9404 16.6862C17.1167 17.4971 16.1776 18.1242 15.1229 18.5675C14.0208 19.0225 12.8653 19.25 11.6566 19.25ZM9.63009 17.2025C8.74129 15.3592 8.23764 13.4167 8.11913 11.375H4.59948C4.71799 12.285 5.00537 13.1367 5.46162 13.93C5.91787 14.7233 6.50448 15.4029 7.22144 15.9687C7.93841 16.5346 8.74129 16.9458 9.63009 17.2025ZM13.3986 11.375H9.91451C10.0449 13.475 10.6255 15.4467 11.6566 17.29C12.6876 15.4467 13.2682 13.475 13.3986 11.375ZM18.7136 11.375H15.194C15.0755 13.4167 14.5777 15.3592 13.7008 17.2025C14.5777 16.9458 15.3747 16.5346 16.0917 15.9687C16.8086 15.4029 17.3952 14.7233 17.8515 13.93C18.3077 13.1367 18.5951 12.285 18.7136 11.375ZM4.59948 9.625H8.11913C8.23764 7.58333 8.74129 5.64083 9.63009 3.7975C8.74129 4.05417 7.93841 4.46542 7.22144 5.03125C6.50448 5.59708 5.91787 6.27667 5.46162 7.07C5.00537 7.86333 4.71799 8.715 4.59948 9.625ZM9.91451 9.625H13.3986C13.2682 7.525 12.6876 5.55333 11.6566 3.71C10.6255 5.55333 10.0449 7.525 9.91451 9.625ZM13.7008 3.7975C14.5777 5.64083 15.0755 7.58333 15.194 9.625H18.7136C18.5951 8.715 18.3077 7.86333 17.8515 7.07C17.3952 6.27667 16.8086 5.59708 16.0917 5.03125C15.3747 4.46542 14.5777 4.05417 13.7008 3.7975Z" fill="#0066CC"/>
</svg>