<svg xmlns="http://www.w3.org/2000/svg" width="35" height="32" viewBox="0 0 35 32" fill="none">
<path d="M29.6653 13.3333V25.3333H32.3334V28H2.98535V25.3333H5.65335V5.33333C5.65335 4.96 5.7823 4.64444 6.04021 4.38667C6.29812 4.12889 6.61383 4 6.98735 4H20.3274C20.7009 4 21.0166 4.12889 21.2745 4.38667C21.5324 4.64444 21.6614 4.96 21.6614 5.33333V25.3333H26.9974V14.6667H24.3294V12H28.3314C28.7049 12 29.0206 12.1289 29.2785 12.3867C29.5364 12.6444 29.6653 12.96 29.6653 13.3333ZM18.9934 6.66667H8.32135V25.3333H18.9934V6.66667ZM10.9894 17.3333V14.6667H16.3254V17.3333H10.9894ZM10.9894 12V9.33333H16.3254V12H10.9894Z" fill="#0066CC"/>
</svg>