<svg xmlns="http://www.w3.org/2000/svg" width="34" height="32" viewBox="0 0 34 32" fill="none">
<path d="M28.9954 17.6534V26.6667H30.3294V29.3334H3.64943V26.6667H4.98343V17.6534C4.16524 17.1023 3.51603 16.3912 3.03579 15.5201C2.55555 14.649 2.31543 13.6979 2.31543 12.6667C2.31543 11.5467 2.60002 10.5245 3.16919 9.60008L6.77099 3.33341C6.8955 3.12008 7.06002 2.95564 7.26457 2.84008C7.46912 2.72453 7.6959 2.66675 7.94491 2.66675H26.0339C26.283 2.66675 26.5097 2.72453 26.7143 2.84008C26.9188 2.95564 27.0834 3.12008 27.2079 3.33341L30.8097 9.57342C31.3788 10.5156 31.6634 11.5467 31.6634 12.6667C31.6634 13.6979 31.4233 14.649 30.9431 15.5201C30.4628 16.3912 29.8136 17.1023 28.9954 17.6534ZM26.3274 26.6667V18.6401C26.114 18.6579 25.8917 18.6667 25.6604 18.6667C24.8245 18.6667 24.0329 18.5067 23.2859 18.1867C22.5389 17.8667 21.8897 17.4134 21.3383 16.8267C20.7691 17.4134 20.111 17.8667 19.3639 18.1867C18.6169 18.5067 17.8254 18.6667 16.9894 18.6667C16.1535 18.6667 15.3619 18.5067 14.6149 18.1867C13.8679 17.8667 13.2187 17.4134 12.6673 16.8267C12.0981 17.4134 11.44 17.8667 10.6929 18.1867C9.94591 18.5067 9.1544 18.6667 8.31843 18.6667C8.0872 18.6667 7.86487 18.6579 7.65143 18.6401V26.6667H26.3274ZM25.2869 5.33341H8.69195L5.46367 10.9601C5.14351 11.4756 4.98343 12.0401 4.98343 12.6534C4.98343 13.2667 5.13462 13.8267 5.43699 14.3334C5.73936 14.8401 6.14401 15.2445 6.65093 15.5467C7.15785 15.849 7.71368 16.0001 8.31843 16.0001C9.01211 16.0001 9.63909 15.809 10.1994 15.4267C10.7596 15.0445 11.1643 14.5334 11.4133 13.8934C11.5556 13.5379 11.7957 13.2934 12.1337 13.1601C12.4716 13.0267 12.814 13.0267 13.1608 13.1601C13.5077 13.2934 13.7523 13.5379 13.8945 13.8934C14.1436 14.5334 14.5482 15.0445 15.1085 15.4267C15.6688 15.809 16.2957 16.0001 16.9894 16.0001C17.6831 16.0001 18.3101 15.809 18.8704 15.4267C19.4306 15.0445 19.8353 14.5334 20.0843 13.8934C20.2266 13.5379 20.4667 13.2934 20.8047 13.1601C21.1426 13.0267 21.485 13.0267 21.8318 13.1601C22.1787 13.2934 22.4233 13.5379 22.5655 13.8934C22.8146 14.5334 23.2192 15.0445 23.7795 15.4267C24.3398 15.809 24.9667 16.0001 25.6604 16.0001C26.2652 16.0001 26.821 15.849 27.3279 15.5467C27.8348 15.2445 28.2395 14.8401 28.5419 14.3334C28.8442 13.8267 28.9954 13.2667 28.9954 12.6534C28.9954 12.0401 28.8353 11.4667 28.5152 10.9334L25.2869 5.33341Z" fill="#0066CC"/>
</svg>