<svg xmlns="http://www.w3.org/2000/svg" width="23" height="21" viewBox="0 0 23 21" fill="none">
<path d="M11.3284 19.25C10.1197 19.25 8.96422 19.0225 7.86211 18.5675C6.8074 18.1242 5.86824 17.4971 5.04461 16.6862C4.22099 15.8754 3.58402 14.9508 3.13369 13.9125C2.67152 12.8275 2.44043 11.69 2.44043 10.5C2.44043 9.31 2.67152 8.1725 3.13369 7.0875C3.58402 6.04917 4.22099 5.12458 5.04461 4.31375C5.86824 3.50292 6.8074 2.87583 7.86211 2.4325C8.96422 1.9775 10.1197 1.75 11.3284 1.75C12.5372 1.75 13.6926 1.9775 14.7947 2.4325C15.8495 2.87583 16.7886 3.50292 17.6122 4.31375C18.4359 5.12458 19.0728 6.04917 19.5232 7.0875C19.9853 8.1725 20.2164 9.31 20.2164 10.5C20.2164 11.69 19.9853 12.8275 19.5232 13.9125C19.0728 14.9508 18.4359 15.8754 17.6122 16.6862C16.7886 17.4971 15.8495 18.1242 14.7947 18.5675C13.6926 19.0225 12.5372 19.25 11.3284 19.25ZM11.3284 17.5C12.6202 17.5 13.8171 17.1792 14.9192 16.5375C15.9857 15.9192 16.8331 15.085 17.4611 14.035C18.1129 12.95 18.4388 11.7717 18.4388 10.5C18.4388 9.22833 18.1129 8.05 17.4611 6.965C16.8331 5.915 15.9857 5.08083 14.9192 4.4625C13.8171 3.82083 12.6202 3.5 11.3284 3.5C10.0367 3.5 8.83979 3.82083 7.73768 4.4625C6.67112 5.08083 5.82379 5.915 5.19571 6.965C4.54392 8.05 4.21803 9.22833 4.21803 10.5C4.21803 11.7717 4.54392 12.95 5.19571 14.035C5.82379 15.085 6.67112 15.9192 7.73768 16.5375C8.83979 17.1792 10.0367 17.5 11.3284 17.5Z" fill="#0066CC"/>
</svg>