<svg xmlns="http://www.w3.org/2000/svg" width="22" height="21" viewBox="0 0 22 21" fill="none">
<path d="M6.88311 13.0667L11.0031 17.2L15.123 13.0667C15.8792 12.3222 16.3907 11.4444 16.6576 10.4333C16.9134 9.44443 16.9134 8.45554 16.6576 7.46665C16.3907 6.45554 15.882 5.57498 15.1314 4.82498C14.3808 4.07498 13.4995 3.56665 12.4876 3.29998C11.4979 3.04443 10.5082 3.04443 9.51855 3.29998C8.50663 3.56665 7.62537 4.07498 6.87477 4.82498C6.12417 5.57498 5.61543 6.45554 5.34855 7.46665C5.09279 8.45554 5.09279 9.44443 5.34855 10.4333C5.61543 11.4444 6.12695 12.3222 6.88311 13.0667ZM16.3073 14.25L11.0031 19.55L5.69883 14.25C4.73139 13.2944 4.08087 12.1611 3.74727 10.85C3.41367 9.58332 3.41367 8.31665 3.74727 7.04998C4.08087 5.73887 4.72861 4.60276 5.69049 3.64165C6.65237 2.68054 7.78939 2.02776 9.10155 1.68332C10.3692 1.36109 11.6369 1.36109 12.9046 1.68332C14.2168 2.02776 15.3538 2.68054 16.3156 3.64165C17.2775 4.60276 17.9253 5.73887 18.2589 7.04998C18.5925 8.31665 18.5925 9.58332 18.2589 10.85C17.9253 12.1611 17.2748 13.2944 16.3073 14.25ZM11.0031 10.6166C11.3033 10.6166 11.5813 10.5416 11.8371 10.3917C12.0928 10.2417 12.2958 10.0389 12.4459 9.78332C12.596 9.52776 12.6711 9.24998 12.6711 8.94998C12.6711 8.64998 12.596 8.37221 12.4459 8.11665C12.2958 7.86109 12.0928 7.65832 11.8371 7.50832C11.5813 7.35832 11.3033 7.28332 11.0031 7.28332C10.7028 7.28332 10.4248 7.35832 10.1691 7.50832C9.91331 7.65832 9.71037 7.86109 9.56025 8.11665C9.41013 8.37221 9.33507 8.64998 9.33507 8.94998C9.33507 9.24998 9.41013 9.52776 9.56025 9.78332C9.71037 10.0389 9.91331 10.2417 10.1691 10.3917C10.4248 10.5416 10.7028 10.6166 11.0031 10.6166ZM11.0031 12.2833C10.4026 12.2833 9.84659 12.1333 9.33507 11.8333C8.82355 11.5333 8.41767 11.1278 8.11743 10.6166C7.81719 10.1055 7.66707 9.54721 7.66707 8.94165C7.66707 8.33609 7.81719 7.78054 8.11743 7.27498C8.41767 6.76943 8.82355 6.36665 9.33507 6.06665C9.84659 5.76665 10.4026 5.61665 11.0031 5.61665C11.6035 5.61665 12.1596 5.76665 12.6711 6.06665C13.1826 6.36665 13.5885 6.76943 13.8887 7.27498C14.189 7.78054 14.3391 8.33609 14.3391 8.94165C14.3391 9.54721 14.189 10.1055 13.8887 10.6166C13.5885 11.1278 13.1826 11.5333 12.6711 11.8333C12.1596 12.1333 11.6035 12.2833 11.0031 12.2833Z" fill="#23BC8D"/>
</svg>