<svg xmlns="http://www.w3.org/2000/svg" width="24" height="21" viewBox="0 0 24 21" fill="none">
<path d="M19.9996 2.625V17.5H21.7772V19.25H2.22363V17.5H4.00123V2.625C4.00123 2.38 4.08715 2.17292 4.25898 2.00375C4.43082 1.83458 4.64117 1.75 4.89003 1.75H19.1108C19.3597 1.75 19.57 1.83458 19.7419 2.00375C19.9137 2.17292 19.9996 2.38 19.9996 2.625ZM5.77883 17.5H18.222V3.5H5.77883V17.5ZM8.44523 11.375V9.625H11.1116V11.375H8.44523ZM8.44523 7.875V6.125H11.1116V7.875H8.44523ZM8.44523 14.875V13.125H11.1116V14.875H8.44523ZM12.8892 14.875V13.125H15.5556V14.875H12.8892ZM12.8892 11.375V9.625H15.5556V11.375H12.8892ZM12.8892 7.875V6.125H15.5556V7.875H12.8892Z" fill="#0066CC"/>
</svg>