<svg xmlns="http://www.w3.org/2000/svg" width="34" height="33" viewBox="0 0 34 33" fill="none">
<path d="M28.9917 27.4668H31.6575V30.1334H2.33301V27.4668H4.99887V4.80009C4.99887 4.42676 5.12773 4.1112 5.38543 3.85342C5.64313 3.59564 5.95859 3.46675 6.33181 3.46675H27.6587C28.032 3.46675 28.3474 3.59564 28.6051 3.85342C28.8628 4.1112 28.9917 4.42676 28.9917 4.80009V27.4668ZM26.3258 27.4668V6.13342H7.66474V27.4668H26.3258ZM11.6635 15.4668H15.6623V18.1334H11.6635V15.4668ZM11.6635 10.1334H15.6623V12.8001H11.6635V10.1334ZM11.6635 20.8001H15.6623V23.4668H11.6635V20.8001ZM18.3282 20.8001H22.327V23.4668H18.3282V20.8001ZM18.3282 15.4668H22.327V18.1334H18.3282V15.4668ZM18.3282 10.1334H22.327V12.8001H18.3282V10.1334Z" fill="white"/>
</svg>