<svg xmlns="http://www.w3.org/2000/svg" width="35" height="33" viewBox="0 0 35 33" fill="none">
<path d="M26.9265 30.1334H8.2654C7.53673 30.1334 6.86582 29.9556 6.25267 29.6001C5.63952 29.2445 5.15522 28.7601 4.79978 28.1468C4.44433 27.5334 4.2666 26.8623 4.2666 26.1334V4.80009C4.2666 4.42676 4.39545 4.1112 4.65315 3.85342C4.91085 3.59564 5.22631 3.46675 5.59954 3.46675H24.2606C24.6338 3.46675 24.9493 3.59564 25.207 3.85342C25.4647 4.1112 25.5935 4.42676 25.5935 4.80009V20.8001H30.9253V26.1334C30.9253 26.8623 30.7475 27.5334 30.3921 28.1468C30.0366 28.7601 29.5524 29.2445 28.9392 29.6001C28.3261 29.9556 27.6551 30.1334 26.9265 30.1334ZM25.5935 23.4668V26.1334C25.5935 26.5068 25.7224 26.8223 25.9801 27.0801C26.2378 27.3379 26.5533 27.4668 26.9265 27.4668C27.2997 27.4668 27.6152 27.3379 27.8729 27.0801C28.1306 26.8223 28.2594 26.5068 28.2594 26.1334V23.4668H25.5935ZM22.9277 27.4668V6.13342H6.93247V26.1334C6.93247 26.5068 7.06132 26.8223 7.31902 27.0801C7.57672 27.3379 7.89218 27.4668 8.2654 27.4668H22.9277ZM9.59834 10.1334H20.2618V12.8001H9.59834V10.1334ZM9.59834 15.4668H20.2618V18.1334H9.59834V15.4668ZM9.59834 20.8001H16.263V23.4668H9.59834V20.8001Z" fill="white"/>
</svg>