<svg xmlns="http://www.w3.org/2000/svg" width="16" height="12" viewBox="0 0 16 12" fill="none">
<path d="M13.2012 0.666667V2H15.2028V3.33333H14.5356V10.6667H15.2028V12H0.524414V10.6667H1.19161V3.33333H0.524414V2H2.52601V0.666667C2.52601 0.48 2.59051 0.322222 2.7195 0.193333C2.84849 0.0644444 3.0064 0 3.19321 0H12.534C12.7208 0 12.8787 0.0644444 13.0077 0.193333C13.1367 0.322222 13.2012 0.48 13.2012 0.666667ZM13.2012 10.6667V3.33333H2.52601V10.6667H4.52761V6H5.86201V10.6667H7.19641V6H8.53081V10.6667H9.86521V6H11.1996V10.6667H13.2012ZM11.8668 1.33333H3.86041V2H11.8668V1.33333Z" fill="white"/>
</svg>