<svg xmlns="http://www.w3.org/2000/svg" width="18" height="16" viewBox="0 0 18 16" fill="none">
<path d="M8.82434 14.6668C7.91695 14.6668 7.04959 14.4935 6.22226 14.1468C5.43052 13.8091 4.72551 13.3313 4.10724 12.7135C3.48897 12.0957 3.01081 11.3913 2.67276 10.6002C2.32582 9.7735 2.15234 8.90683 2.15234 8.00016C2.15234 7.0935 2.32582 6.22683 2.67276 5.40016C3.01081 4.60905 3.48897 3.90461 4.10724 3.28683C4.72551 2.66905 5.43052 2.19127 6.22226 1.8535C7.04959 1.50683 7.91695 1.3335 8.82434 1.3335C9.73174 1.3335 10.5991 1.50683 11.4264 1.8535C12.2182 2.19127 12.9232 2.66905 13.5414 3.28683C14.1597 3.90461 14.6379 4.60905 14.9759 5.40016C15.3229 6.22683 15.4963 7.0935 15.4963 8.00016C15.4963 8.90683 15.3229 9.7735 14.9759 10.6002C14.6379 11.3913 14.1597 12.0957 13.5414 12.7135C12.9232 13.3313 12.2182 13.8091 11.4264 14.1468C10.5991 14.4935 9.73174 14.6668 8.82434 14.6668ZM7.30313 13.1068C6.63593 11.7024 6.25785 10.2224 6.16889 8.66683H3.52678C3.61574 9.36016 3.83146 10.0091 4.17396 10.6135C4.51646 11.2179 4.95681 11.7357 5.49502 12.1668C6.03322 12.5979 6.63593 12.9113 7.30313 13.1068ZM10.1321 8.66683H7.51663C7.61449 10.2668 8.05039 11.7691 8.82434 13.1735C9.5983 11.7691 10.0342 10.2668 10.1321 8.66683ZM14.1219 8.66683H11.4798C11.3908 10.2224 11.0172 11.7024 10.3589 13.1068C11.0172 12.9113 11.6155 12.5979 12.1537 12.1668C12.6919 11.7357 13.1322 11.2179 13.4747 10.6135C13.8172 10.0091 14.033 9.36016 14.1219 8.66683ZM3.52678 7.3335H6.16889C6.25785 5.77794 6.63593 4.29794 7.30313 2.8935C6.63593 3.08905 6.03322 3.40238 5.49502 3.8335C4.95681 4.26461 4.51646 4.78238 4.17396 5.38683C3.83146 5.99127 3.61574 6.64016 3.52678 7.3335ZM7.51663 7.3335H10.1321C10.0342 5.7335 9.5983 4.23127 8.82434 2.82683C8.05039 4.23127 7.61449 5.7335 7.51663 7.3335ZM10.3589 2.8935C11.0172 4.29794 11.3908 5.77794 11.4798 7.3335H14.1219C14.033 6.64016 13.8172 5.99127 13.4747 5.38683C13.1322 4.78238 12.6919 4.26461 12.1537 3.8335C11.6155 3.40238 11.0172 3.08905 10.3589 2.8935Z" fill="white"/>
</svg>