<svg xmlns="http://www.w3.org/2000/svg" width="35" height="32" viewBox="0 0 35 32" fill="none">
<path d="M5.2224 14.96L6.66312 14.5333V6C6.66312 5.62667 6.79207 5.31111 7.04998 5.05333C7.30788 4.79556 7.6236 4.66667 7.99712 4.66667H14.6671V2H20.0031V4.66667H26.6731C27.0466 4.66667 27.3624 4.79556 27.6203 5.05333C27.8782 5.31111 28.0071 5.62667 28.0071 6V14.5333L29.4478 14.96C29.7858 15.0667 30.0437 15.2756 30.2216 15.5867C30.3994 15.8978 30.4439 16.2222 30.355 16.56L28.354 24.6667H28.0071C27.2423 24.6667 26.5041 24.5422 25.7927 24.2933L27.4735 17.1467L17.3351 14L7.19672 17.1467L8.87756 24.2933C8.16609 24.5422 7.42794 24.6667 6.66312 24.6667H6.31628L4.31528 16.56C4.22634 16.2222 4.27081 15.8978 4.44868 15.5867C4.62654 15.2756 4.88445 15.0667 5.2224 14.96ZM9.33112 7.33333V13.7333L17.3351 11.3333L25.3391 13.7333V7.33333H9.33112ZM3.99512 27.3333H6.66312C7.67696 27.3333 8.63744 27.1556 9.54456 26.8C10.4517 26.4444 11.2699 25.9467 11.9991 25.3067C12.7284 25.9467 13.5466 26.4444 14.4537 26.8C15.3608 27.1556 16.3213 27.3333 17.3351 27.3333C18.349 27.3333 19.3094 27.1556 20.2166 26.8C21.1237 26.4444 21.9419 25.9467 22.6711 25.3067C23.4004 25.9467 24.2186 26.4444 25.1257 26.8C26.0328 27.1556 26.9933 27.3333 28.0071 27.3333H30.6751V30H28.0071C26.1039 30 24.3253 29.52 22.6711 28.56C21.017 29.52 19.2383 30 17.3351 30C15.4319 30 13.6533 29.52 11.9991 28.56C10.345 29.52 8.56629 30 6.66312 30H3.99512V27.3333Z" fill="#0066CC"/>
</svg>