<svg xmlns="http://www.w3.org/2000/svg" width="34" height="33" viewBox="0 0 34 33" fill="none">
<path d="M12.7439 23.4667C12.6373 24.2133 12.3663 24.8933 11.9309 25.5067C11.4954 26.12 10.9445 26.6 10.278 26.9467C9.61155 27.2933 8.89621 27.4667 8.13199 27.4667C7.36777 27.4667 6.65243 27.2933 5.98597 26.9467C5.3195 26.6 4.76855 26.12 4.33313 25.5067C3.8977 24.8933 3.62667 24.2133 3.52004 23.4667H2.13379V7.46667C2.13379 7.09334 2.26264 6.77779 2.52034 6.52001C2.77804 6.26223 3.0935 6.13334 3.46672 6.13334H22.1278C22.501 6.13334 22.8165 6.26223 23.0742 6.52001C23.3319 6.77779 23.4607 7.09334 23.4607 7.46667V10.1333H27.4595L31.4583 15.5467V23.4667H28.7391C28.6325 24.2133 28.3615 24.8933 27.9261 25.5067C27.4906 26.12 26.9397 26.6 26.2732 26.9467C25.6067 27.2933 24.8914 27.4667 24.1272 27.4667C23.363 27.4667 22.6476 27.2933 21.9812 26.9467C21.3147 26.6 20.7638 26.12 20.3283 25.5067C19.8929 24.8933 19.6219 24.2133 19.5152 23.4667H12.7439ZM20.7949 8.80001H4.79966V19.5467C5.22619 19.1022 5.72827 18.7556 6.30587 18.5067C6.88348 18.2578 7.49218 18.1333 8.13199 18.1333C9.05616 18.1333 9.89591 18.3778 10.6512 18.8667C11.4066 19.3556 11.9708 20 12.3441 20.8H19.9151C20.1284 20.3378 20.4216 19.92 20.7949 19.5467V8.80001ZM23.4607 16.8H28.7925V16.4267L26.1266 12.8H23.4607V16.8ZM24.1272 24.8C24.5537 24.8 24.9403 24.6756 25.2868 24.4267C25.6334 24.1778 25.8778 23.8578 26.02 23.4667C26.091 23.2533 26.1266 23.0311 26.1266 22.8C26.1266 22.2489 25.9311 21.7778 25.5401 21.3867C25.1491 20.9956 24.6781 20.8 24.1272 20.8C23.5762 20.8 23.1053 20.9956 22.7143 21.3867C22.3233 21.7778 22.1278 22.2489 22.1278 22.8C22.1278 23.0311 22.1633 23.2533 22.2344 23.4667C22.3766 23.8578 22.621 24.1778 22.9675 24.4267C23.3141 24.6756 23.7007 24.8 24.1272 24.8ZM10.1314 22.8C10.1314 22.2489 9.93589 21.7778 9.5449 21.3867C9.15391 20.9956 8.68294 20.8 8.13199 20.8C7.58104 20.8 7.11007 20.9956 6.71908 21.3867C6.32809 21.7778 6.13259 22.2489 6.13259 22.8C6.13259 23.0311 6.16813 23.2533 6.23922 23.4667C6.3814 23.8578 6.62578 24.1778 6.97234 24.4267C7.3189 24.6756 7.70545 24.8 8.13199 24.8C8.55853 24.8 8.94508 24.6756 9.29164 24.4267C9.63821 24.1778 9.88258 23.8578 10.0248 23.4667C10.0958 23.2533 10.1314 23.0311 10.1314 22.8Z" fill="white"/>
</svg>