<svg xmlns="http://www.w3.org/2000/svg" width="23" height="21" viewBox="0 0 23 21" fill="none">
<path d="M7.21289 1.75H16.1009V3.5H15.2121V15.75C15.2121 16.38 15.0521 16.9633 14.7321 17.5C14.4122 18.0367 13.9796 18.4625 13.4345 18.7775C12.8894 19.0925 12.2968 19.25 11.6569 19.25C11.017 19.25 10.4244 19.0925 9.87929 18.7775C9.33416 18.4625 8.90161 18.0367 8.58164 17.5C8.26167 16.9633 8.10169 16.38 8.10169 15.75V3.5H7.21289V1.75ZM13.4345 15.75V8.75H9.87929V15.75C9.87929 16.065 9.95928 16.3567 10.1193 16.625C10.2793 16.8933 10.4955 17.1062 10.7681 17.2637C11.0407 17.4212 11.3369 17.5 11.6569 17.5C11.9769 17.5 12.2731 17.4212 12.5457 17.2637C12.8183 17.1062 13.0345 16.8933 13.1945 16.625C13.3545 16.3567 13.4345 16.065 13.4345 15.75ZM12.5457 13.125C12.7946 13.125 13.0049 13.2096 13.1767 13.3787C13.3486 13.5479 13.4345 13.755 13.4345 14C13.4345 14.245 13.3486 14.4521 13.1767 14.6213C13.0049 14.7904 12.7946 14.875 12.5457 14.875C12.2968 14.875 12.0865 14.7904 11.9146 14.6213C11.7428 14.4521 11.6569 14.245 11.6569 14C11.6569 13.755 11.7428 13.5479 11.9146 13.3787C12.0865 13.2096 12.2968 13.125 12.5457 13.125ZM10.7681 10.5C11.017 10.5 11.2273 10.5846 11.3991 10.7537C11.571 10.9229 11.6569 11.13 11.6569 11.375C11.6569 11.62 11.571 11.8271 11.3991 11.9963C11.2273 12.1654 11.017 12.25 10.7681 12.25C10.5192 12.25 10.3089 12.1654 10.137 11.9963C9.96521 11.8271 9.87929 11.62 9.87929 11.375C9.87929 11.13 9.96521 10.9229 10.137 10.7537C10.3089 10.5846 10.5192 10.5 10.7681 10.5ZM13.4345 7V3.5H9.87929V7H13.4345Z" fill="#0066CC"/>
</svg>