<svg xmlns="http://www.w3.org/2000/svg" width="17" height="16" viewBox="0 0 17 16" fill="none">
<path d="M11.8792 10.2931V14.8665C11.8792 14.9642 11.8458 15.0443 11.7791 15.1065C11.7124 15.1687 11.6345 15.1998 11.5456 15.1998C11.4833 15.1998 11.4255 15.1865 11.3721 15.1598L8.54317 13.4665L5.71424 15.1598C5.63417 15.2042 5.54966 15.2154 5.4607 15.1931C5.37174 15.1709 5.30502 15.1198 5.26054 15.0398C5.22496 14.9865 5.20717 14.9287 5.20717 14.8665V10.2931C4.58445 9.79536 4.09961 9.19092 3.75267 8.4798C3.38793 7.74203 3.20557 6.9598 3.20557 6.13314C3.20557 5.16425 3.45021 4.26647 3.93949 3.4398C4.41097 2.63092 5.04704 1.99092 5.84768 1.5198C6.67501 1.0398 7.5735 0.799805 8.54317 0.799805C9.51283 0.799805 10.4113 1.0398 11.2387 1.5198C12.0393 1.99092 12.6754 2.63092 13.1468 3.4398C13.6361 4.26647 13.8808 5.16425 13.8808 6.13314C13.8808 6.9598 13.6984 7.74203 13.3337 8.4798C12.9867 9.19092 12.5019 9.79536 11.8792 10.2931ZM6.54157 11.0798V11.0665V13.1065L8.54317 11.9065L10.5448 13.1065V11.0665C9.90425 11.3331 9.23705 11.4665 8.54317 11.4665C7.84928 11.4665 7.18208 11.3376 6.54157 11.0798ZM8.54317 10.1331C9.26374 10.1331 9.93539 9.95092 10.5581 9.58647C11.163 9.23092 11.6434 8.75092 11.9993 8.14647C12.364 7.52425 12.5464 6.85092 12.5464 6.12647C12.5464 5.40203 12.364 4.72869 11.9993 4.10647C11.6434 3.50203 11.163 3.02647 10.5581 2.6798C9.93539 2.31536 9.26374 2.13314 8.54317 2.13314C7.82259 2.13314 7.15094 2.31536 6.52822 2.6798C5.92329 3.02647 5.44291 3.50203 5.08707 4.10647C4.72233 4.72869 4.53997 5.40203 4.53997 6.12647C4.53997 6.85092 4.72233 7.52425 5.08707 8.14647C5.44291 8.75092 5.92329 9.23092 6.52822 9.58647C7.15094 9.95092 7.82259 10.1331 8.54317 10.1331Z" fill="white"/>
</svg>