<svg xmlns="http://www.w3.org/2000/svg" width="23" height="21" viewBox="0 0 23 21" fill="none">
<path d="M17.55 19.25H5.10683C4.62095 19.25 4.17359 19.1333 3.76474 18.9C3.35589 18.6667 3.03296 18.3487 2.79595 17.9462C2.55894 17.5437 2.44043 17.1033 2.44043 16.625V2.625C2.44043 2.38 2.52635 2.17292 2.69818 2.00375C2.87002 1.83458 3.08037 1.75 3.32923 1.75H15.7724C16.0213 1.75 16.2316 1.83458 16.4035 2.00375C16.5753 2.17292 16.6612 2.38 16.6612 2.625V13.125H20.2164V16.625C20.2164 17.1033 20.0979 17.5437 19.8609 17.9462C19.6239 18.3487 19.301 18.6667 18.8921 18.9C18.4833 19.1333 18.0359 19.25 17.55 19.25ZM18.4388 14.875H16.6612V16.625C16.6612 16.87 16.7471 17.0771 16.919 17.2463C17.0908 17.4154 17.3012 17.5 17.55 17.5C17.7989 17.5 18.0092 17.4154 18.1811 17.2463C18.3529 17.0771 18.4388 16.87 18.4388 16.625V14.875ZM5.10683 17.5H14.8836V3.5H4.21803V16.625C4.21803 16.87 4.30395 17.0771 4.47578 17.2463C4.64762 17.4154 4.85797 17.5 5.10683 17.5ZM5.99563 7.875V6.125H13.106V7.875H5.99563ZM5.99563 11.375V9.625H13.106V11.375H5.99563ZM5.99563 14.875V13.125H10.4396V14.875H5.99563Z" fill="#0066CC"/>
</svg>